<svg viewBox="0 0 612 612" width="38" height="38" xmlns="http://www.w3.org/2000/svg">
  <path fill="#FFFF00" d="M570.107,500.254c-65.037-29.371-67.511-155.441-67.559-158.622v-84.578c0-81.402-49.742-151.399-120.427-181.203 C381.969,34,347.883,0,306.001,0c-41.883,0-75.968,34.002-76.121,75.849c-70.682,29.804-120.425,99.801-120.425,181.203v84.578 c-0.046,3.181-2.522,129.251-67.561,158.622c-7.409,3.347-11.481,11.412-9.768,19.36c1.711,7.949,8.74,13.626,16.871,13.626 h164.88c3.38,18.594,12.172,35.892,25.619,49.903c17.86,18.608,41.479,28.856,66.502,28.856 c25.025,0,48.644-10.248,66.502-28.856c13.449-14.012,22.241-31.311,25.619-49.903h164.88c8.131,0,15.159-5.676,16.872-13.626 C581.586,511.664,577.516,503.6,570.107,500.254z"/>
</svg>