<svg width="31" height="31" viewBox="0 0 31 31" fill="none" xmlns="http://www.w3.org/2000/svg">
<g clip-path="url(#clip0_69_765)">
<path d="M30.7569 25.3397C27.4626 23.8519 27.3373 17.466 27.3348 17.3049V13.0207C27.3348 8.8974 24.8152 5.3518 21.2348 3.84213C21.2271 1.72222 19.5005 0 17.379 0C15.2575 0 13.531 1.72232 13.5232 3.84202C9.94292 5.3517 7.42326 8.8973 7.42326 13.0206V17.3048C7.42093 17.4659 7.29551 23.8518 4.00105 25.3396C3.62576 25.5091 3.4195 25.9176 3.50626 26.3202C3.59293 26.7229 3.94898 27.0104 4.36084 27.0104H12.7126C12.8838 27.9523 13.3292 28.8285 14.0103 29.5382C14.915 30.4807 16.1114 30.9998 17.3789 30.9998C18.6465 30.9998 19.8429 30.4807 20.7474 29.5382C21.4287 28.8284 21.874 27.9522 22.0451 27.0104H30.3969C30.8088 27.0104 31.1647 26.7229 31.2515 26.3202C31.3384 25.9176 31.1322 25.5091 30.7569 25.3397Z" fill="#006666"/>
</g>
<defs>
<clipPath id="clip0_69_765">
<rect width="31" height="31" fill="white"/>
</clipPath>
</defs>
</svg>
