<svg width="39" height="39" viewBox="0 0 39 39" fill="none" xmlns="http://www.w3.org/2000/svg">
<g clip-path="url(#clip0_69_660)">
<path d="M37.8858 20.3343H33.5476C33.075 20.3343 32.6914 19.9508 32.6914 19.4782C32.6914 19.0055 33.075 18.622 33.5476 18.622H37.8858C38.3584 18.622 38.742 19.0055 38.742 19.4782C38.742 19.9508 38.3584 20.3343 37.8858 20.3343Z" fill="#4BF03C"/>
<path d="M5.40875 20.3343H1.07053C0.597921 20.3343 0.214355 19.9508 0.214355 19.4782C0.214355 19.0055 0.597921 18.622 1.07053 18.622H5.40875C5.88136 18.622 6.26492 19.0055 6.26492 19.4782C6.26492 19.9508 5.88179 20.3343 5.40875 20.3343Z" fill="#4BF03C"/>
<path d="M19.4782 6.26485C19.0056 6.26485 18.6221 5.88128 18.6221 5.40867V1.07045C18.6221 0.597844 19.0056 0.214279 19.4782 0.214279C19.9508 0.214279 20.3344 0.597844 20.3344 1.07045V5.40867C20.3344 5.88171 19.9508 6.26485 19.4782 6.26485Z" fill="#4BF03C"/>
<path d="M19.4782 38.742C19.0056 38.742 18.6221 38.3585 18.6221 37.8858V33.5476C18.6221 33.075 19.0056 32.6915 19.4782 32.6915C19.9508 32.6915 20.3344 33.075 20.3344 33.5476V37.8858C20.3344 38.3585 19.9508 38.742 19.4782 38.742Z" fill="#4BF03C"/>
<path d="M32.4943 33.3503C32.2751 33.3503 32.0564 33.2668 31.889 33.0994L28.8213 30.0318C28.487 29.6974 28.487 29.1555 28.8213 28.8211C29.1556 28.4868 29.6976 28.4868 30.0319 28.8211L33.0996 31.8888C33.4339 32.2231 33.4339 32.7651 33.0996 33.0994C32.9326 33.2668 32.7135 33.3503 32.4943 33.3503Z" fill="#4BF03C"/>
<path d="M9.52944 10.3856C9.31026 10.3856 9.09108 10.3021 8.92413 10.1347L5.85646 7.06708C5.52213 6.73274 5.52213 6.19078 5.85646 5.85645C6.19037 5.52211 6.73318 5.52211 7.06709 5.85645L10.1348 8.92411C10.4691 9.25845 10.4691 9.8004 10.1348 10.1347C9.9678 10.3021 9.74862 10.3856 9.52944 10.3856Z" fill="#4BF03C"/>
<path d="M29.4266 10.3856C29.2074 10.3856 28.9887 10.3021 28.8213 10.1347C28.487 9.8004 28.487 9.25845 28.8213 8.92411L31.889 5.85645C32.2233 5.52211 32.7653 5.52211 33.0996 5.85645C33.4339 6.19078 33.4339 6.73274 33.0996 7.06708L30.0319 10.1347C29.865 10.3021 29.6458 10.3856 29.4266 10.3856Z" fill="#4BF03C"/>
<path d="M6.46178 33.3503C6.2426 33.3503 6.02342 33.2668 5.85646 33.0994C5.52213 32.7651 5.52213 32.2231 5.85646 31.8888L8.92413 28.8211C9.25803 28.4868 9.80085 28.4868 10.1348 28.8211C10.4691 29.1555 10.4691 29.6974 10.1348 30.0318L7.06709 33.0994C6.90014 33.2668 6.68096 33.3503 6.46178 33.3503Z" fill="#4BF03C"/>
<path d="M19.4782 28.4829C14.5128 28.4829 10.4734 24.4431 10.4734 19.4781C10.4734 14.5132 14.5128 10.4734 19.4782 10.4734C24.4435 10.4734 28.483 14.5128 28.483 19.4781C28.483 24.4435 24.4435 28.4829 19.4782 28.4829Z" fill="#4BF03C"/>
</g>
<defs>
<clipPath id="clip0_69_660">
<rect width="39" height="39" fill="white"/>
</clipPath>
</defs>
</svg>
