<svg width="95" height="86" viewBox="0 0 95 86" fill="none" xmlns="http://www.w3.org/2000/svg">
<path d="M65.7359 4.5393C66.2972 5.00291 66.8512 5.47758 67.397 5.96356C67.6769 6.1968 67.9568 6.43004 68.2451 6.67035C71.7838 9.81834 74.0534 14.3183 75.1658 19.1807C75.2723 20.2992 75.2556 21.2458 75.1658 22.3711C75.6971 22.4181 76.2284 22.4651 76.7758 22.5135C82.3554 23.2412 87.2104 26.5985 90.7035 31.4863C91.6794 33.2478 92.4496 35.043 93.1568 36.9555C93.2959 37.3204 93.4351 37.6852 93.5784 38.0611C95.3591 43.5286 94.714 49.9108 92.7479 55.1861C90.6547 59.4389 87.6511 63.04 83.7524 65.2129C83.4773 65.3715 83.2021 65.5301 82.9187 65.6936C79.1037 67.8755 75.8127 68.4756 71.5386 68.4477C70.9729 68.4468 70.9729 68.4468 70.3958 68.4458C69.2003 68.4433 68.0048 68.4375 66.8093 68.4317C65.9949 68.4294 65.1806 68.4274 64.3663 68.4255C62.3781 68.4205 60.3898 68.4126 58.4016 68.4032C58.4101 68.8517 58.4187 69.3001 58.4275 69.7622C58.4571 71.4261 58.4759 73.0899 58.4914 74.754C58.4996 75.4742 58.5108 76.1944 58.525 76.9144C58.5448 77.9497 58.5541 78.9844 58.5613 80.0199C58.5697 80.3418 58.5782 80.6637 58.5869 80.9954C58.5872 81.9076 58.5872 81.9076 58.4016 83.4435C57.229 84.7235 56.3768 84.9826 54.7606 84.9877C54.1651 84.9941 54.1651 84.9941 53.5575 85.0007C53.1315 84.998 52.7056 84.9952 52.2667 84.9923C51.6075 84.9943 51.6075 84.9943 50.9349 84.9963C50.0066 84.9972 49.0783 84.9947 48.15 84.989C46.7267 84.9817 45.3039 84.9889 43.8806 84.9977C42.979 84.9968 42.0773 84.995 41.1757 84.9923C40.7489 84.9951 40.3221 84.9979 39.8824 85.0007C39.4867 84.9964 39.0909 84.9921 38.6832 84.9877C38.3349 84.9866 37.9866 84.9855 37.6278 84.9844C36.522 84.7703 36.1582 84.449 35.504 83.4435C35.3971 82.264 35.3611 81.197 35.3842 80.0199C35.386 79.688 35.3877 79.3561 35.3895 79.0141C35.3964 77.9552 35.4118 76.8967 35.4274 75.8379C35.4335 75.1195 35.4391 74.4012 35.4441 73.6828C35.4577 71.9228 35.4788 70.1631 35.504 68.4032C35.2621 68.4063 35.0202 68.4093 34.7709 68.4124C32.2369 68.4428 29.7028 68.4634 27.1686 68.4783C26.2248 68.4852 25.281 68.4945 24.3372 68.5064C22.975 68.5231 21.613 68.5308 20.2507 68.5368C19.8336 68.5438 19.4164 68.5509 18.9867 68.5581C14.2203 68.5594 9.8945 67.0458 6.379 63.34C5.54352 62.3266 4.77213 61.2906 4.01993 60.1995C3.81753 59.9087 3.61513 59.6179 3.4066 59.3182C0.765068 55.1032 0.23587 49.7081 0.748849 44.7035C1.6237 40.6165 3.04802 37.2608 5.65546 34.2209C5.90372 33.9313 6.15197 33.6416 6.40775 33.3432C8.38267 31.2409 11.401 28.7518 14.242 28.7518C14.28 27.8776 14.28 27.8775 14.3187 26.9857C14.7791 22.5612 17.054 18.9335 19.9664 15.9904C23.3857 13.2987 25.8394 12.7174 29.9585 12.7146C30.3878 12.709 30.8172 12.7034 31.2595 12.6977C31.8797 12.6963 31.8797 12.6963 32.5125 12.695C32.8901 12.6931 33.2677 12.6912 33.6568 12.6893C34.7318 12.8049 35.3989 13.1036 36.3218 13.7115C36.3629 13.4519 36.404 13.1922 36.4464 12.9246C37.3317 9.69826 40.0927 7.02263 42.4551 5.05203C42.6833 4.8511 42.9115 4.65018 43.1467 4.44316C49.7557 -0.807459 59.089 -0.196373 65.7359 4.5393Z" fill="#83C9EB"/>
<path d="M65.7359 4.5393C66.2972 5.00291 66.8512 5.47758 67.397 5.96356C67.6769 6.1968 67.9568 6.43004 68.2452 6.67035C71.7838 9.81834 74.0534 14.3183 75.1658 19.1807C75.2723 20.2992 75.2556 21.2458 75.1658 22.3711C75.6971 22.4181 76.2284 22.4651 76.7758 22.5135C82.3554 23.2412 87.2104 26.5985 90.7035 31.4863C91.6794 33.2478 92.4496 35.043 93.1568 36.9555C93.2959 37.3204 93.4351 37.6852 93.5784 38.0611C95.3591 43.5286 94.714 49.9108 92.7479 55.1861C90.6547 59.439 87.6511 63.04 83.7524 65.2129C83.4773 65.3715 83.2021 65.5302 82.9187 65.6936C79.1037 67.8755 75.8127 68.4756 71.5386 68.4478C70.9729 68.4468 70.9729 68.4468 70.3958 68.4458C69.2003 68.4433 68.0048 68.4375 66.8093 68.4317C65.9949 68.4294 65.1806 68.4274 64.3663 68.4255C62.3781 68.4205 60.3898 68.4126 58.4016 68.4032C58.4101 68.8517 58.4187 69.3001 58.4275 69.7622C58.4571 71.4261 58.4759 73.0899 58.4914 74.754C58.4996 75.4742 58.5108 76.1944 58.525 76.9144C58.5448 77.9497 58.5541 78.9845 58.5613 80.0199C58.5697 80.3418 58.5782 80.6637 58.5869 80.9954C58.5872 81.9076 58.5872 81.9076 58.4016 83.4435C57.229 84.7235 56.3768 84.9826 54.7606 84.9877C54.1651 84.9941 54.1651 84.9941 53.5575 85.0007C53.1315 84.998 52.7056 84.9952 52.2667 84.9923C51.6075 84.9943 51.6075 84.9943 50.9349 84.9963C50.0066 84.9972 49.0783 84.9947 48.15 84.989C46.7267 84.9817 45.3039 84.9889 43.8806 84.9977C42.979 84.9968 42.0773 84.995 41.1757 84.9923C40.7489 84.9951 40.3221 84.9979 39.8824 85.0007C39.4867 84.9964 39.0909 84.9921 38.6832 84.9877C38.3349 84.9866 37.9866 84.9855 37.6278 84.9844C36.522 84.7704 36.1582 84.449 35.504 83.4435C35.3971 82.2641 35.3611 81.197 35.3842 80.0199C35.386 79.688 35.3877 79.3561 35.3895 79.0141C35.3964 77.9552 35.4118 76.8967 35.4274 75.8379C35.4335 75.1195 35.4391 74.4012 35.4441 73.6828C35.4577 71.9228 35.4788 70.1631 35.504 68.4032C35.2621 68.4063 35.0202 68.4093 34.7709 68.4124C32.2369 68.4429 29.7028 68.4634 27.1686 68.4783C26.2248 68.4852 25.281 68.4945 24.3372 68.5064C22.975 68.5231 21.613 68.5308 20.2507 68.5368C19.8336 68.5438 19.4164 68.5509 18.9867 68.5582C14.2203 68.5594 9.8945 67.0458 6.379 63.34C5.54352 62.3266 4.77213 61.2906 4.01993 60.1995C3.81753 59.9087 3.61513 59.6179 3.4066 59.3182C0.765068 55.1032 0.23587 49.7081 0.748849 44.7035C1.6237 40.6165 3.04802 37.2608 5.65546 34.2209C5.90372 33.9313 6.15197 33.6417 6.40775 33.3432C8.38267 31.2409 11.401 28.7518 14.242 28.7518C14.28 27.8776 14.28 27.8776 14.3187 26.9857C14.7791 22.5612 17.054 18.9335 19.9664 15.9904C23.3857 13.2987 25.8394 12.7174 29.9585 12.7146C30.3878 12.709 30.8172 12.7034 31.2595 12.6977C31.8797 12.6963 31.8797 12.6963 32.5125 12.695C32.8901 12.6931 33.2677 12.6912 33.6568 12.6893C34.7318 12.8049 35.3989 13.1036 36.3218 13.7115C36.3629 13.4519 36.404 13.1922 36.4464 12.9246C37.3317 9.69826 40.0927 7.02263 42.4551 5.05203C42.6833 4.8511 42.9115 4.65018 43.1467 4.44316C49.7557 -0.807459 59.089 -0.196373 65.7359 4.5393ZM46.135 7.78662C45.7049 8.05922 45.2748 8.33182 44.8317 8.61269C41.5113 11.4913 39.6549 14.4245 37.9573 18.725C36.5013 18.4895 35.3858 18.2124 34.0218 17.5571C31.1588 16.3268 28.0572 16.4753 25.1797 17.5855C22.2618 19.0706 19.9591 21.6797 18.6344 24.9401C17.9938 27.2135 17.7584 29.5817 17.5131 31.9421C17.0324 32.1395 16.5517 32.3369 16.0565 32.5403C15.605 32.7333 15.605 32.7333 15.1445 32.9302C14.3901 33.2472 13.6269 33.538 12.8621 33.8221C9.41136 35.5385 6.78084 38.8942 5.24498 42.6722C4.00128 47.4834 4.53785 51.7644 6.50198 56.167C8.48586 59.9099 11.2284 62.7388 15.0598 63.8456C16.6598 64.0217 18.245 64.0055 19.8514 63.9791C20.3006 63.9772 20.7497 63.9753 21.2125 63.9733C22.6372 63.9657 24.0617 63.9485 25.4864 63.9311C26.4564 63.9242 27.4264 63.918 28.3965 63.9124C30.7658 63.8973 33.1349 63.8738 35.504 63.8456C35.504 61.74 35.504 59.6343 35.504 57.4649C33.7499 57.3145 28.7248 57.6199 26.9175 57.4649C30.3532 53.2363 29.7797 54.2746 30.3532 53.2363C30.6457 52.9104 30.9383 52.5845 31.2397 52.2488C31.5688 51.8749 31.8978 51.5009 32.2369 51.1157C32.5993 50.7211 32.9617 50.3265 33.335 49.9199C33.7029 49.509 34.0707 49.0981 34.4497 48.6747C35.2296 47.8072 36.0116 46.9436 36.799 46.0846C37.807 44.9843 38.8038 43.8722 39.7975 42.7557C40.7473 41.6912 41.7052 40.6357 42.6627 39.5797C43.0201 39.1796 43.3776 38.7794 43.7458 38.3671C44.0826 38.0018 44.4194 37.6365 44.7664 37.2602C45.0609 36.9365 45.3554 36.6128 45.6589 36.2792C46.5439 35.5882 46.5439 35.5882 47.5689 35.3819C48.8862 35.6485 49.3737 36.1721 50.3218 37.2183C50.6491 37.5745 50.9764 37.9307 51.3136 38.2976C51.6608 38.6878 52.008 39.078 52.3657 39.48C52.7259 39.8782 53.086 40.2763 53.457 40.6866C54.4121 41.7467 55.362 42.8124 56.3105 43.8798C56.893 44.5317 57.4797 45.1784 58.0683 45.8236C59.198 47.0632 60.319 48.3119 61.4379 49.5638C61.9649 50.1408 61.9649 50.1408 62.5025 50.7294C62.172 50.3536 62.8234 51.0942 62.5025 50.7294C62.5025 50.7855 64.2242 53.1241 64.3606 53.2935C66.9739 56.5379 65.406 54.375 67.4966 57.2655C65.2406 57.2655 68.0193 57.2655 61.4426 57.2655C61.152 57.2852 60.839 57.2452 60.5395 57.2655C59.769 57.2655 59.0792 57.2798 58.359 57.3251C58.359 59.4308 58.4016 61.6762 58.4016 63.8456C60.8157 63.8911 63.2295 63.9239 65.6439 63.9457C66.4632 63.9548 67.2824 63.9672 68.1016 63.9831C74.6855 64.1076 80.0405 63.5874 85.388 58.8322C86.5232 57.5668 87.4033 56.248 88.2501 54.7303C88.4573 54.3714 88.6644 54.0124 88.8779 53.6425C90.924 49.494 90.9049 44.5108 89.9799 39.9678C89.2761 37.6799 88.3428 35.6953 87.0235 33.7652C86.7958 33.3892 86.5681 33.0132 86.3335 32.6258C82.7543 28.3128 78.2229 26.7916 73.147 26.2415C72.7337 26.1675 72.3205 26.0934 71.8948 26.0172C71.3729 24.8539 71.4265 23.9566 71.3837 22.6559C70.9738 17.1862 68.8073 12.928 65.1897 9.2743C59.8589 4.5841 51.8929 3.82559 46.135 7.78662Z" fill="#14171A"/>
<path d="M47.3619 40.6016C49.8946 42.8804 50.7716 44.101 52.8962 46.2132C53.7307 47.2848 54.6286 48.2704 55.5396 49.2611C56.0604 49.8295 56.58 50.3993 57.0984 50.9703C57.3456 51.2405 57.5928 51.606 57.8475 51.8844C58.2343 52.3072 58.6115 52.7528 59.6568 54.375C58.6115 54.375 58.3938 54.375 57.8475 54.375C55.9982 54.375 56.1594 54.375 54.5914 54.375C54.5914 55.9972 54.5862 55.4171 54.5914 56.7628C54.5833 57.2828 54.5752 57.8029 54.5668 58.3387C54.5597 59.184 54.5597 59.184 54.5525 60.0464C54.5446 60.6217 54.5367 61.197 54.5285 61.7898C54.5082 63.3198 54.4913 64.8497 54.4761 66.3798C54.4598 67.9409 54.4389 69.502 54.4183 71.063C54.3783 74.1264 54.3458 77.1896 54.3129 80.2531C49.4554 80.2531 44.5978 80.2531 39.5931 80.2531C39.4582 71.6802 39.3232 63.1073 39.1842 54.2745C38.2277 54.375 35.6144 54.375 34.5691 54.375C34.5691 54.0742 36.0728 52.7025 36.7309 51.9957C37.3889 51.2889 37.3889 51.2889 38.2642 50.486C38.6429 50.1386 40.7256 47.4692 41.3638 46.8047C42.1353 46.0013 41.8864 46.2639 41.8864 46.2639L42.4091 45.7232C43.4544 44.6417 43.9559 43.9317 45.0223 43.0195C45.7114 42.2685 46.6901 41.3719 47.3619 40.6016Z" fill="#FCFCFB"/>
</svg>
